<svg width="30" height="28" viewBox="0 0 30 28" fill="none" xmlns="http://www.w3.org/2000/svg">
<g clip-path="url(#clip0_3732_4561)">
<path d="M24.3208 16.0841H28.98C29.0352 16.0843 29.0899 16.0735 29.1409 16.0524C29.1919 16.0314 29.2382 16.0004 29.2773 15.9614C29.3163 15.9224 29.3472 15.876 29.3683 15.825C29.3893 15.774 29.4001 15.7193 29.4 15.6641V12.3041C29.4 12.1927 29.3557 12.0859 29.277 12.0071C29.1982 11.9284 29.0914 11.8841 28.98 11.8841H22.4513L17.3077 0.332267C17.264 0.233954 17.1928 0.150331 17.1028 0.091405C17.0127 0.0324788 16.9076 0.000744739 16.8 0H12.6C12.4918 2.63351e-05 12.3858 0.0314239 12.2951 0.0903932C12.2043 0.149363 12.1326 0.233376 12.0885 0.332267L6.94867 11.8841H0.420001C0.30861 11.8841 0.201782 11.9284 0.123016 12.0071C0.044251 12.0859 1.04178e-06 12.1927 1.04178e-06 12.3041V15.6641C-0.000122013 15.7193 0.0106575 15.774 0.0317209 15.825C0.0527842 15.876 0.0837166 15.9224 0.122742 15.9614C0.161767 16.0004 0.208116 16.0314 0.259129 16.0524C0.310141 16.0735 0.364811 16.0843 0.420001 16.0841H5.0792L0.0392009 27.4092C0.0108021 27.473 -0.00124154 27.5429 0.00415921 27.6125C0.00955997 27.6821 0.032235 27.7493 0.0701324 27.8079C0.10803 27.8666 0.159953 27.9149 0.221205 27.9484C0.282457 27.9819 0.351104 27.9997 0.420934 28H4.17013C4.27838 28 4.3843 27.9686 4.47507 27.9096C4.56584 27.8506 4.63758 27.7666 4.6816 27.6677L14.7 5.166L24.7184 27.6677C24.7624 27.7666 24.8342 27.8506 24.9249 27.9096C25.0157 27.9686 25.1216 28 25.2299 28H28.9791C29.0491 28.0001 29.1181 27.9827 29.1797 27.9494C29.2414 27.9161 29.2937 27.8678 29.3319 27.8091C29.3701 27.7504 29.393 27.683 29.3986 27.6132C29.4041 27.5433 29.3921 27.4732 29.3636 27.4092L24.3208 16.0841Z" fill="white"/>
</g>
<defs>
<clipPath id="clip0_3732_4561">
<rect width="29.4" height="28" fill="white"/>
</clipPath>
</defs>
</svg>
