<svg width="252" height="24" viewBox="0 0 252 24" fill="none" xmlns="http://www.w3.org/2000/svg">
<g clip-path="url(#clip0_3141_2592)">
<path d="M36.5688 20.1856V0.729321C36.5688 0.636624 36.532 0.547723 36.4664 0.482177C36.4009 0.41663 36.3121 0.379807 36.2194 0.379807H33.4243C33.3317 0.379807 33.2428 0.41663 33.1773 0.482177C33.1118 0.547723 33.075 0.636624 33.075 0.729321V23.3312C33.075 23.4239 33.1118 23.5128 33.1773 23.5784C33.2428 23.6439 33.3317 23.6808 33.4243 23.6808H47.8655C47.9581 23.6808 48.047 23.6439 48.1125 23.5784C48.1781 23.5128 48.2149 23.4239 48.2149 23.3312V20.5351C48.2149 20.4424 48.1781 20.3535 48.1125 20.288C48.047 20.2224 47.9581 20.1856 47.8655 20.1856H36.5688Z" fill="white"/>
<path d="M72.6715 0.379807H55.9011C55.7082 0.379807 55.5518 0.536289 55.5518 0.729321V3.52544C55.5518 3.71847 55.7082 3.87495 55.9011 3.87495H72.6715C72.8645 3.87495 73.0209 3.71847 73.0209 3.52544V0.729321C73.0209 0.536289 72.8645 0.379807 72.6715 0.379807Z" fill="white"/>
<path d="M72.6715 20.1856H55.9011C55.7082 20.1856 55.5518 20.3421 55.5518 20.5351V23.3313C55.5518 23.5243 55.7082 23.6808 55.9011 23.6808H72.6715C72.8645 23.6808 73.0209 23.5243 73.0209 23.3313V20.5351C73.0209 20.3421 72.8645 20.1856 72.6715 20.1856Z" fill="white"/>
<path d="M72.6715 10.2687H55.9011C55.7082 10.2687 55.5518 10.4252 55.5518 10.6183V13.4144C55.5518 13.6074 55.7082 13.7639 55.9011 13.7639H72.6715C72.8645 13.7639 73.0209 13.6074 73.0209 13.4144V10.6183C73.0209 10.4252 72.8645 10.2687 72.6715 10.2687Z" fill="white"/>
<path d="M195.633 0.379807H178.863C178.67 0.379807 178.514 0.536289 178.514 0.729321V3.52544C178.514 3.71847 178.67 3.87495 178.863 3.87495H195.633C195.826 3.87495 195.983 3.71847 195.983 3.52544V0.729321C195.983 0.536289 195.826 0.379807 195.633 0.379807Z" fill="white"/>
<path d="M195.633 20.1856H178.863C178.67 20.1856 178.514 20.3421 178.514 20.5351V23.3313C178.514 23.5243 178.67 23.6808 178.863 23.6808H195.633C195.826 23.6808 195.983 23.5243 195.983 23.3313V20.5351C195.983 20.3421 195.826 20.1856 195.633 20.1856Z" fill="white"/>
<path d="M195.633 10.2687H178.863C178.67 10.2687 178.514 10.4252 178.514 10.6183V13.4144C178.514 13.6074 178.67 13.7639 178.863 13.7639H195.633C195.826 13.7639 195.983 13.6074 195.983 13.4144V10.6183C195.983 10.4252 195.826 10.2687 195.633 10.2687Z" fill="white"/>
<path d="M128.223 0.379807H125.428C125.235 0.379807 125.079 0.536289 125.079 0.729321V23.3312C125.079 23.5243 125.235 23.6808 125.428 23.6808H128.223C128.416 23.6808 128.573 23.5243 128.573 23.3312V0.729321C128.573 0.536289 128.416 0.379807 128.223 0.379807Z" fill="white"/>
<path d="M121.236 10.2874H112.268V0.733979C112.268 0.641282 112.231 0.552381 112.166 0.486834C112.1 0.421288 112.012 0.384464 111.919 0.384464H109.124C109.031 0.384464 108.942 0.421288 108.877 0.486834C108.811 0.552381 108.774 0.641282 108.774 0.733979V10.2874H105.63C105.538 10.2874 105.45 10.3235 105.385 10.3881C105.319 10.4526 105.282 10.5403 105.281 10.6322V13.4283C105.281 13.521 105.317 13.6099 105.383 13.6755C105.448 13.741 105.537 13.7779 105.63 13.7779H108.774V23.3312C108.774 23.4239 108.811 23.5128 108.877 23.5784C108.942 23.6439 109.031 23.6808 109.124 23.6808H111.919C112.012 23.6808 112.1 23.6439 112.166 23.5784C112.231 23.5128 112.268 23.4239 112.268 23.3312V13.7779H121.236C121.328 13.7779 121.417 13.741 121.483 13.6755C121.548 13.6099 121.585 13.521 121.585 13.4283V10.6322C121.584 10.5403 121.547 10.4526 121.481 10.3881C121.416 10.3235 121.328 10.2874 121.236 10.2874Z" fill="white"/>
<path d="M20.2315 13.7662H24.1074C24.198 13.7663 24.2852 13.731 24.3504 13.668C24.4156 13.6049 24.4537 13.519 24.4567 13.4283V10.6322C24.4567 10.5395 24.4199 10.4506 24.3544 10.3851C24.2889 10.3195 24.2 10.2827 24.1074 10.2827H18.6756L14.3968 0.657088C14.3606 0.575248 14.3016 0.505578 14.2268 0.456407C14.1521 0.407235 14.0647 0.380642 13.9753 0.379807H10.4814C10.3916 0.380195 10.3037 0.406579 10.2285 0.455777C10.1533 0.504976 10.0939 0.574889 10.0575 0.657088L5.78107 10.2711H0.349333C0.302455 10.271 0.25605 10.2804 0.212884 10.2987C0.169717 10.317 0.130672 10.3438 0.0980718 10.3775C0.0654716 10.4112 0.0399835 10.4511 0.0231264 10.4949C0.00626919 10.5387 -0.00161258 10.5854 -4.99681e-05 10.6322V13.4283C-4.99681e-05 13.521 0.0367596 13.6099 0.102282 13.6755C0.167804 13.741 0.256671 13.7779 0.349333 13.7779H4.22515L0.0325589 23.2008C0.0114361 23.2532 0.00336046 23.31 0.00902455 23.3663C0.0146886 23.4226 0.0339229 23.4767 0.0650772 23.5239C0.0962315 23.5711 0.138374 23.61 0.187886 23.6374C0.237398 23.6647 0.292799 23.6796 0.349333 23.6808H3.46816C3.55842 23.6808 3.64676 23.6546 3.72243 23.6054C3.7981 23.5562 3.85785 23.486 3.8944 23.4035L12.2283 4.67883L20.5623 23.4035C20.5988 23.486 20.6586 23.5562 20.7343 23.6054C20.8099 23.6546 20.8983 23.6808 20.9885 23.6808H24.1074C24.1656 23.6807 24.2229 23.6662 24.274 23.6384C24.3252 23.6106 24.3686 23.5704 24.4003 23.5216C24.432 23.4727 24.451 23.4167 24.4556 23.3587C24.4601 23.3006 24.4501 23.2423 24.4265 23.1891L20.2315 13.7662Z" fill="white"/>
<path d="M99.5229 5.53864C98.8757 4.00963 97.7929 2.70507 96.4094 1.78766C95.026 0.870257 93.4031 0.380616 91.7433 0.379807H81.9024C81.8097 0.379807 81.7208 0.41663 81.6553 0.482177C81.5898 0.547723 81.553 0.636624 81.553 0.729321V3.52544C81.553 3.61813 81.5898 3.70703 81.6553 3.77258C81.7208 3.83813 81.8097 3.87495 81.9024 3.87495H91.7433C92.4051 3.87296 93.0604 4.00534 93.6696 4.26408C94.5536 4.63893 95.3101 5.26214 95.8474 6.05825C96.4018 6.87456 96.6966 7.8395 96.6929 8.8264C96.6938 9.48833 96.5615 10.1437 96.3039 10.7534C95.9277 11.6382 95.3041 12.3955 94.5081 12.9344C93.692 13.4868 92.7287 13.7807 91.7433 13.7779H81.9024C81.8097 13.7779 81.7208 13.8147 81.6553 13.8802C81.5898 13.9458 81.553 14.0347 81.553 14.1274V23.3312C81.553 23.4239 81.5898 23.5128 81.6553 23.5784C81.7208 23.6439 81.8097 23.6808 81.9024 23.6808H84.6974C84.7901 23.6808 84.879 23.6439 84.9445 23.5784C85.01 23.5128 85.0468 23.4239 85.0468 23.3312V17.273H91.7433C93.9825 17.2724 96.1297 16.3823 97.713 14.7984C99.2963 13.2145 100.186 11.0664 100.187 8.8264C100.187 7.69715 99.9612 6.57928 99.5229 5.53864Z" fill="white"/>
<path d="M221.716 13.5495C222.658 12.1548 223.16 10.5096 223.158 8.8264C223.158 7.71709 222.94 6.6186 222.516 5.59367C222.091 4.56874 221.469 3.63748 220.685 2.85307C219.901 2.06867 218.97 1.44652 217.946 1.02214C216.921 0.597769 215.823 0.379501 214.714 0.379807H204.873C204.781 0.379807 204.692 0.41663 204.626 0.482177C204.561 0.547724 204.524 0.636624 204.524 0.729321V3.52544C204.524 3.61813 204.561 3.70703 204.626 3.77258C204.692 3.83813 204.781 3.87495 204.873 3.87495H214.714C215.376 3.87296 216.031 4.00534 216.641 4.26408C217.538 4.6415 218.305 5.27588 218.844 6.08757C219.382 6.89927 219.669 7.85209 219.668 8.8264C219.67 9.48818 219.539 10.1435 219.282 10.7534C218.905 11.6377 218.281 12.3948 217.486 12.9344C216.669 13.4869 215.705 13.7808 214.719 13.7779H204.873C204.781 13.7779 204.692 13.8147 204.626 13.8802C204.561 13.9458 204.524 14.0347 204.524 14.1274V23.3312C204.524 23.4239 204.561 23.5128 204.626 23.5784C204.692 23.6439 204.781 23.6808 204.873 23.6808H207.668C207.761 23.6808 207.85 23.6439 207.915 23.5784C207.981 23.5128 208.018 23.4239 208.018 23.3312V17.273H214.714C215.299 17.2732 215.882 17.2123 216.454 17.0913L219.296 23.4734C219.323 23.5353 219.368 23.5879 219.424 23.6247C219.481 23.6616 219.547 23.681 219.615 23.6808H222.808C222.866 23.6807 222.924 23.6662 222.975 23.6384C223.026 23.6106 223.07 23.5704 223.101 23.5216C223.133 23.4727 223.152 23.4167 223.156 23.3587C223.161 23.3006 223.151 23.2423 223.127 23.1891L219.75 15.6023C220.515 15.0329 221.18 14.339 221.716 13.5495Z" fill="white"/>
<path d="M170.837 0.379802H154.066C153.974 0.379802 153.885 0.416626 153.819 0.482173C153.754 0.547719 153.717 0.63662 153.717 0.729317V3.52543C153.717 3.61813 153.754 3.70703 153.819 3.77258C153.885 3.83812 153.974 3.87495 154.066 3.87495H165.992L161.354 9.79805C161.32 9.8424 161.298 9.89552 161.292 9.95146C161.286 10.0074 161.295 10.0639 161.32 10.1147C161.344 10.1656 161.382 10.2086 161.429 10.2391C161.476 10.2696 161.531 10.2863 161.587 10.2874H165.118C165.224 10.2873 165.329 10.2632 165.424 10.2167C165.519 10.1703 165.603 10.1028 165.668 10.0194L171.025 3.16427C171.13 3.04442 171.191 2.89234 171.198 2.7332V0.729317C171.198 0.682421 171.188 0.635999 171.17 0.592816C171.152 0.549633 171.125 0.510574 171.091 0.477961C171.057 0.445349 171.018 0.419851 170.974 0.402987C170.93 0.386124 170.883 0.378239 170.837 0.379802Z" fill="white"/>
<path d="M170.836 20.1856H157.704L162.346 14.2718C162.381 14.2275 162.403 14.1744 162.409 14.1184C162.415 14.0625 162.405 14.0059 162.381 13.9551C162.357 13.9043 162.319 13.8613 162.272 13.8308C162.225 13.8003 162.17 13.7836 162.114 13.7825H158.573C158.467 13.7822 158.362 13.8062 158.266 13.8526C158.17 13.8991 158.087 13.9667 158.021 14.0505L152.701 20.8427C152.605 20.9657 152.552 21.1174 152.552 21.2738V23.3312C152.552 23.4239 152.589 23.5128 152.654 23.5784C152.72 23.6439 152.809 23.6808 152.902 23.6808H170.836C170.929 23.6808 171.018 23.6439 171.084 23.5784C171.149 23.5128 171.186 23.4239 171.186 23.3312V20.5351C171.186 20.4892 171.177 20.4438 171.159 20.4014C171.142 20.359 171.116 20.3204 171.084 20.288C171.051 20.2555 171.013 20.2298 170.97 20.2122C170.928 20.1947 170.882 20.1856 170.836 20.1856Z" fill="white"/>
<path d="M248.371 13.7569C248.289 13.7573 248.209 13.7867 248.146 13.8399C248.083 13.8932 248.041 13.9669 248.027 14.0481C247.929 14.5937 247.782 15.1294 247.589 15.6489C247.069 17.0968 246.115 18.3486 244.857 19.2326C243.615 20.0782 242.143 20.5223 240.641 20.5048C239.628 20.5107 238.625 20.3142 237.69 19.927C236.323 19.3505 235.172 18.3594 234.399 17.0936C233.83 16.1592 233.443 15.126 233.257 14.0481C233.243 13.9669 233.201 13.8932 233.138 13.8399C233.075 13.7867 232.995 13.7573 232.912 13.7569H230.078C230.028 13.7568 229.979 13.7673 229.933 13.7879C229.888 13.8084 229.847 13.8385 229.814 13.876C229.781 13.9135 229.757 13.9577 229.743 14.0055C229.728 14.0532 229.724 14.1035 229.731 14.153C229.866 15.0833 230.1 15.9965 230.43 16.8769C231.179 18.9817 232.566 20.7998 234.399 22.0769C236.231 23.354 238.417 24.0264 240.65 24C242.126 24.005 243.589 23.7159 244.952 23.1495C246.987 22.2905 248.702 20.8177 249.86 18.9367C250.751 17.4767 251.33 15.8479 251.56 14.153C251.567 14.1035 251.563 14.0532 251.548 14.0055C251.534 13.9577 251.51 13.9135 251.477 13.876C251.444 13.8385 251.403 13.8084 251.358 13.7879C251.312 13.7673 251.263 13.7568 251.213 13.7569H248.371Z" fill="white"/>
<path d="M232.906 10.2617C232.988 10.2618 233.068 10.2326 233.131 10.1792C233.194 10.1259 233.236 10.052 233.25 9.97048C233.348 9.4148 233.496 8.86896 233.69 8.33941C234.211 6.89724 235.162 5.65016 236.416 4.76738C237.659 3.92307 239.131 3.47916 240.634 3.49514C241.645 3.48928 242.648 3.68575 243.583 4.07301C244.952 4.64819 246.106 5.63832 246.883 6.90407C247.453 7.84466 247.841 8.88409 248.027 9.96815C248.041 10.0494 248.083 10.1231 248.146 10.1764C248.209 10.2296 248.289 10.259 248.372 10.2594H251.204C251.254 10.2595 251.303 10.2489 251.349 10.2284C251.394 10.2078 251.435 10.1778 251.468 10.1404C251.501 10.1029 251.526 10.0588 251.54 10.011C251.555 9.96324 251.56 9.91288 251.553 9.86329C251.419 8.92667 251.185 8.00718 250.854 7.12077C250.082 5.00534 248.679 3.17841 246.834 1.88738C245.008 0.640156 242.845 -0.0191776 240.634 -0.00232853C239.159 -0.00831418 237.698 0.28003 236.336 0.845826C234.301 1.70448 232.586 3.17935 231.431 5.0633C230.536 6.52826 229.956 8.16385 229.728 9.86563C229.722 9.91508 229.726 9.96539 229.74 10.0132C229.755 10.0609 229.779 10.1051 229.812 10.1426C229.845 10.1801 229.885 10.2102 229.931 10.2307C229.976 10.2513 230.026 10.2619 230.076 10.2617H232.906Z" fill="white"/>
</g>
<defs>
<clipPath id="clip0_3141_2592">
<rect width="251.556" height="24" fill="white"/>
</clipPath>
</defs>
</svg>
