<svg width="33" height="32" viewBox="0 0 33 32" fill="none" xmlns="http://www.w3.org/2000/svg">
<path fill-rule="evenodd" clip-rule="evenodd" d="M4.49994 16C4.49994 9.37258 9.87252 4 16.4999 4C23.1274 4 28.4999 9.37258 28.4999 16C28.4999 22.6274 23.1274 28 16.4999 28C9.87252 28 4.49994 22.6274 4.49994 16ZM16.4999 2C8.76795 2 2.49994 8.26801 2.49994 16C2.49994 23.732 8.76795 30 16.4999 30C24.2319 30 30.4999 23.732 30.4999 16C30.4999 8.26801 24.2319 2 16.4999 2ZM21.6961 23C21.17 22.0888 20.4136 21.332 19.5027 20.8054C18.5917 20.2789 17.5584 20.0011 16.5062 20C15.4541 19.9989 14.4201 20.2745 13.5081 20.7991C12.5961 21.3238 11.8381 22.079 11.3101 22.9891L9.58013 21.9855C10.2841 20.772 11.2948 19.765 12.5108 19.0655C13.7269 18.366 15.1054 17.9985 16.5083 18C17.9112 18.0015 19.289 18.3718 20.5036 19.0739C21.7181 19.776 22.7267 20.7851 23.4281 22L21.6961 23ZM13.4999 11V15H11.4999V11H13.4999ZM21.4999 15V11H19.4999V15H21.4999Z" fill="white"/>
</svg>
